<svg width="18" height="24" viewBox="0 0 18 24" fill="none" xmlns="http://www.w3.org/2000/svg">
<path d="M15 22.5H14.25V21.75C14.25 19.6781 12.5719 18 10.5 18H7.5C5.42812 18 3.75 19.6781 3.75 21.75V22.5H3C2.17031 22.5 1.5 21.8297 1.5 21V3C1.5 2.17031 2.17031 1.5 3 1.5H9V6.75C9 7.99219 10.0078 9 11.25 9H16.5V21C16.5 21.8297 15.8297 22.5 15 22.5ZM12.75 21.75V22.5H5.25V21.75C5.25 20.5078 6.25781 19.5 7.5 19.5H10.5C11.7422 19.5 12.75 20.5078 12.75 21.75ZM11.25 7.5C10.8375 7.5 10.5 7.1625 10.5 6.75V1.52344C10.6313 1.55625 10.7531 1.62188 10.8469 1.72031L16.2797 7.15313C16.3781 7.25156 16.4438 7.36875 16.4766 7.5H11.25ZM3 0C1.34531 0 0 1.34531 0 3V21C0 22.6547 1.34531 24 3 24H15C16.6547 24 18 22.6547 18 21V7.68281C18 7.0875 17.7609 6.51562 17.3391 6.09375L11.9109 0.660938C11.4891 0.239063 10.9172 0 10.3219 0H3ZM9 12C9.39782 12 9.77936 12.158 10.0607 12.4393C10.342 12.7206 10.5 13.1022 10.5 13.5C10.5 13.8978 10.342 14.2794 10.0607 14.5607C9.77936 14.842 9.39782 15 9 15C8.60218 15 8.22064 14.842 7.93934 14.5607C7.65804 14.2794 7.5 13.8978 7.5 13.5C7.5 13.1022 7.65804 12.7206 7.93934 12.4393C8.22064 12.158 8.60218 12 9 12ZM9 16.5C9.79565 16.5 10.5587 16.1839 11.1213 15.6213C11.6839 15.0587 12 14.2956 12 13.5C12 12.7044 11.6839 11.9413 11.1213 11.3787C10.5587 10.8161 9.79565 10.5 9 10.5C8.20435 10.5 7.44129 10.8161 6.87868 11.3787C6.31607 11.9413 6 12.7044 6 13.5C6 14.2956 6.31607 15.0587 6.87868 15.6213C7.44129 16.1839 8.20435 16.5 9 16.5Z" fill="#253352"/>
</svg>
