<svg width="18" height="24" viewBox="0 0 18 24" fill="none" xmlns="http://www.w3.org/2000/svg">
<path d="M3 0C1.34531 0 0 1.34531 0 3V21C0 22.6547 1.34531 24 3 24H15C16.6547 24 18 22.6547 18 21V7.5H12C11.1703 7.5 10.5 6.82969 10.5 6V0H3ZM12 0V6H18L12 0ZM6 12C6 11.2044 6.31607 10.4413 6.87868 9.87868C7.44129 9.31607 8.20435 9 9 9C9.79565 9 10.5587 9.31607 11.1213 9.87868C11.6839 10.4413 12 11.2044 12 12C12 12.7956 11.6839 13.5587 11.1213 14.1213C10.5587 14.6839 9.79565 15 9 15C8.20435 15 7.44129 14.6839 6.87868 14.1213C6.31607 13.5587 6 12.7956 6 12ZM3.75 20.25C3.75 18.1781 5.42812 16.5 7.5 16.5H10.5C12.5719 16.5 14.25 18.1781 14.25 20.25C14.25 20.6625 13.9125 21 13.5 21H4.5C4.0875 21 3.75 20.6625 3.75 20.25Z" fill="#3768EC"/>
</svg>
