<svg width="37" height="24" viewBox="0 0 37 24" fill="none" xmlns="http://www.w3.org/2000/svg">
<path d="M8.51 5.53846C9.00065 5.53846 9.47121 5.34396 9.81815 4.99774C10.1651 4.65151 10.36 4.18194 10.36 3.69231C10.36 3.20268 10.1651 2.7331 9.81815 2.38688C9.47121 2.04066 9.00065 1.84615 8.51 1.84615C8.01935 1.84615 7.5488 2.04066 7.20185 2.38688C6.85491 2.7331 6.66 3.20268 6.66 3.69231C6.66 4.18194 6.85491 4.65151 7.20185 4.99774C7.5488 5.34396 8.01935 5.53846 8.51 5.53846ZM8.51 0C9.4913 0 10.4324 0.38901 11.1263 1.08145C11.8202 1.77389 12.21 2.71305 12.21 3.69231C12.21 4.67157 11.8202 5.61072 11.1263 6.30316C10.4324 6.99561 9.4913 7.38462 8.51 7.38462C7.5287 7.38462 6.58759 6.99561 5.8937 6.30316C5.19982 5.61072 4.81 4.67157 4.81 3.69231C4.81 2.71305 5.19982 1.77389 5.8937 1.08145C6.58759 0.38901 7.5287 0 8.51 0ZM28.86 5.53846C29.3507 5.53846 29.8212 5.34396 30.1681 4.99774C30.5151 4.65151 30.71 4.18194 30.71 3.69231C30.71 3.20268 30.5151 2.7331 30.1681 2.38688C29.8212 2.04066 29.3507 1.84615 28.86 1.84615C28.3694 1.84615 27.8988 2.04066 27.5519 2.38688C27.2049 2.7331 27.01 3.20268 27.01 3.69231C27.01 4.18194 27.2049 4.65151 27.5519 4.99774C27.8988 5.34396 28.3694 5.53846 28.86 5.53846ZM28.86 0C29.8413 0 30.7824 0.38901 31.4763 1.08145C32.1702 1.77389 32.56 2.71305 32.56 3.69231C32.56 4.67157 32.1702 5.61072 31.4763 6.30316C30.7824 6.99561 29.8413 7.38462 28.86 7.38462C27.8787 7.38462 26.9376 6.99561 26.2437 6.30316C25.5498 5.61072 25.16 4.67157 25.16 3.69231C25.16 2.71305 25.5498 1.77389 26.2437 1.08145C26.9376 0.38901 27.8787 0 28.86 0ZM21.3675 12.9231H15.8175C13.7767 12.9231 12.1175 14.5788 12.1175 16.6154H25.0675C25.0675 14.5788 23.4083 12.9231 21.3675 12.9231ZM10.2675 16.6154C10.2675 13.5577 12.7534 11.0769 15.8175 11.0769H21.3675C24.4316 11.0769 26.9175 13.5577 26.9175 16.6154C26.9175 17.6365 26.0908 18.4615 25.0675 18.4615H12.1175C11.0942 18.4615 10.2675 17.6365 10.2675 16.6154ZM18.5925 7.38462C19.3285 7.38462 20.0343 7.09286 20.5547 6.57353C21.0751 6.0542 21.3675 5.34983 21.3675 4.61538C21.3675 3.88094 21.0751 3.17657 20.5547 2.65724C20.0343 2.13791 19.3285 1.84615 18.5925 1.84615C17.8565 1.84615 17.1507 2.13791 16.6303 2.65724C16.1099 3.17657 15.8175 3.88094 15.8175 4.61538C15.8175 5.34983 16.1099 6.0542 16.6303 6.57353C17.1507 7.09286 17.8565 7.38462 18.5925 7.38462ZM18.5925 0C19.8191 0 20.9955 0.486262 21.8629 1.35181C22.7302 2.21737 23.2175 3.39131 23.2175 4.61538C23.2175 5.83946 22.7302 7.0134 21.8629 7.87895C20.9955 8.74451 19.8191 9.23077 18.5925 9.23077C17.3659 9.23077 16.1895 8.74451 15.3221 7.87895C14.4548 7.0134 13.9675 5.83946 13.9675 4.61538C13.9675 3.39131 14.4548 2.21737 15.3221 1.35181C16.1895 0.486262 17.3659 0 18.5925 0ZM3.7 12.9231V13.8462C3.7 14.3538 3.28375 14.7692 2.775 14.7692C2.26625 14.7692 1.85 14.3538 1.85 13.8462V12.9231C1.85 10.8865 3.50922 9.23077 5.55 9.23077H10.6375C11.1462 9.23077 11.5625 9.64615 11.5625 10.1538C11.5625 10.6615 11.1462 11.0769 10.6375 11.0769H5.55C4.52672 11.0769 3.7 11.9019 3.7 12.9231ZM31.45 11.0769H26.3625C25.8538 11.0769 25.4375 10.6615 25.4375 10.1538C25.4375 9.64615 25.8538 9.23077 26.3625 9.23077H31.45C33.4908 9.23077 35.15 10.8865 35.15 12.9231V13.8462C35.15 14.3538 34.7337 14.7692 34.225 14.7692C33.7163 14.7692 33.3 14.3538 33.3 13.8462V12.9231C33.3 11.9019 32.4733 11.0769 31.45 11.0769ZM0.925 22.1538H36.075C36.5838 22.1538 37 22.5692 37 23.0769C37 23.5846 36.5838 24 36.075 24H0.925C0.41625 24 0 23.5846 0 23.0769C0 22.5692 0.41625 22.1538 0.925 22.1538Z" fill="#253352"/>
</svg>
