<svg width="34" height="24" viewBox="0 0 34 24" fill="none" xmlns="http://www.w3.org/2000/svg">
<path d="M11.22 3.42857C11.22 2.51926 10.8618 1.64719 10.2242 1.00421C9.58654 0.361224 8.72174 0 7.82 0C6.91826 0 6.05346 0.361224 5.41584 1.00421C4.77821 1.64719 4.42 2.51926 4.42 3.42857C4.42 4.33789 4.77821 5.20996 5.41584 5.85294C6.05346 6.49592 6.91826 6.85714 7.82 6.85714C8.72174 6.85714 9.58654 6.49592 10.2242 5.85294C10.8618 5.20996 11.22 4.33789 11.22 3.42857ZM1.7 12C1.7 12.9482 2.45969 13.7143 3.4 13.7143H7.9475C8.48406 11.6036 9.99813 9.88393 11.9744 9.075C11.4591 8.75357 10.8481 8.57143 10.2 8.57143H5.1C3.22469 8.57143 1.7 10.1089 1.7 12ZM26.2225 13.7143H30.6C31.5403 13.7143 32.3 12.9482 32.3 12C32.3 10.1089 30.7753 8.57143 28.9 8.57143H23.8C23.1784 8.57143 22.5941 8.7375 22.0947 9.03214C24.1187 9.825 25.6753 11.5661 26.2225 13.7143ZM20.7825 10.4143C20.4159 10.3286 20.0281 10.2857 19.635 10.2857H14.535C14.0834 10.2857 13.6478 10.3446 13.2334 10.4518C11.5972 10.8857 10.2797 12.1179 9.72188 13.7143C9.53594 14.25 9.42969 14.8286 9.42969 15.4286C9.42969 16.3768 10.1894 17.1429 11.1297 17.1429H23.0297C23.97 17.1429 24.7297 16.3768 24.7297 15.4286C24.7297 14.8286 24.6287 14.25 24.4375 13.7143C23.8638 12.0696 22.4825 10.8107 20.7772 10.4143H20.7825ZM29.92 3.42857C29.92 2.51926 29.5618 1.64719 28.9242 1.00421C28.2865 0.361224 27.4217 0 26.52 0C25.6183 0 24.7535 0.361224 24.1158 1.00421C23.4782 1.64719 23.12 2.51926 23.12 3.42857C23.12 4.33789 23.4782 5.20996 24.1158 5.85294C24.7535 6.49592 25.6183 6.85714 26.52 6.85714C27.4217 6.85714 28.2865 6.49592 28.9242 5.85294C29.5618 5.20996 29.92 4.33789 29.92 3.42857ZM17.085 8.57143C18.2122 8.57143 19.2932 8.1199 20.0902 7.31617C20.8872 6.51244 21.335 5.42236 21.335 4.28571C21.335 3.14907 20.8872 2.05898 20.0902 1.25526C19.2932 0.451529 18.2122 0 17.085 0C15.9578 0 14.8768 0.451529 14.0798 1.25526C13.2828 2.05898 12.835 3.14907 12.835 4.28571C12.835 5.42236 13.2828 6.51244 14.0798 7.31617C14.8768 8.1199 15.9578 8.57143 17.085 8.57143ZM1.7 20.5714C0.759687 20.5714 0 21.3375 0 22.2857C0 23.2339 0.759687 24 1.7 24H32.3C33.2403 24 34 23.2339 34 22.2857C34 21.3375 33.2403 20.5714 32.3 20.5714H1.7Z" fill="#3768EC"/>
</svg>
