<svg width="24" height="24" viewBox="0 0 24 24" fill="none" xmlns="http://www.w3.org/2000/svg">
<path d="M7.71429 1.68421H2.57143C2.1 1.68421 1.71429 2.06316 1.71429 2.52632V7.57895C1.71429 8.04211 2.1 8.42105 2.57143 8.42105H7.71429C8.18571 8.42105 8.57143 8.04211 8.57143 7.57895V2.52632C8.57143 2.06316 8.18571 1.68421 7.71429 1.68421ZM2.57143 0H7.71429C9.13393 0 10.2857 1.13158 10.2857 2.52632V7.57895C10.2857 8.97368 9.13393 10.1053 7.71429 10.1053H2.57143C1.15179 10.1053 0 8.97368 0 7.57895V2.52632C0 1.13158 1.15179 0 2.57143 0ZM7.71429 15.1579H2.57143C2.1 15.1579 1.71429 15.5368 1.71429 16V21.0526C1.71429 21.5158 2.1 21.8947 2.57143 21.8947H7.71429C8.18571 21.8947 8.57143 21.5158 8.57143 21.0526V16C8.57143 15.5368 8.18571 15.1579 7.71429 15.1579ZM2.57143 13.4737H7.71429C9.13393 13.4737 10.2857 14.6053 10.2857 16V21.0526C10.2857 22.4474 9.13393 23.5789 7.71429 23.5789H2.57143C1.15179 23.5789 0 22.4474 0 21.0526V16C0 14.6053 1.15179 13.4737 2.57143 13.4737ZM16.2857 1.68421C15.8143 1.68421 15.4286 2.06316 15.4286 2.52632V7.57895C15.4286 8.04211 15.8143 8.42105 16.2857 8.42105H21.4286C21.9 8.42105 22.2857 8.04211 22.2857 7.57895V2.52632C22.2857 2.06316 21.9 1.68421 21.4286 1.68421H16.2857ZM13.7143 2.52632C13.7143 1.13158 14.8661 0 16.2857 0H21.4286C22.8482 0 24 1.13158 24 2.52632V7.57895C24 8.97368 22.8482 10.1053 21.4286 10.1053H16.2857C14.8661 10.1053 13.7143 8.97368 13.7143 7.57895V2.52632ZM13.7143 14.3158C13.7143 13.8526 14.1 13.4737 14.5714 13.4737H18C18.4714 13.4737 18.8571 13.8526 18.8571 14.3158V17.8947H22.2857V14.3158C22.2857 13.8526 22.6714 13.4737 23.1429 13.4737C23.6143 13.4737 24 13.8526 24 14.3158V18.7368C24 19.2 23.6143 19.5789 23.1429 19.5789H18C17.5286 19.5789 17.1429 19.2 17.1429 18.7368V15.1579H15.4286V23.1579C15.4286 23.6211 15.0429 24 14.5714 24C14.1 24 13.7143 23.6211 13.7143 23.1579V14.3158ZM4.71429 3.78947H5.57143C6.04286 3.78947 6.42857 4.16842 6.42857 4.63158V5.47368C6.42857 5.93684 6.04286 6.31579 5.57143 6.31579H4.71429C4.24286 6.31579 3.85714 5.93684 3.85714 5.47368V4.63158C3.85714 4.16842 4.24286 3.78947 4.71429 3.78947ZM3.85714 18.1053C3.85714 17.6421 4.24286 17.2632 4.71429 17.2632H5.57143C6.04286 17.2632 6.42857 17.6421 6.42857 18.1053V18.9474C6.42857 19.4105 6.04286 19.7895 5.57143 19.7895H4.71429C4.24286 19.7895 3.85714 19.4105 3.85714 18.9474V18.1053ZM18.4286 3.78947H19.2857C19.7571 3.78947 20.1429 4.16842 20.1429 4.63158V5.47368C20.1429 5.93684 19.7571 6.31579 19.2857 6.31579H18.4286C17.9571 6.31579 17.5714 5.93684 17.5714 5.47368V4.63158C17.5714 4.16842 17.9571 3.78947 18.4286 3.78947ZM17.1429 21.8947C17.1429 21.4316 17.5286 21.0526 18 21.0526H18.8571C19.3286 21.0526 19.7143 21.4316 19.7143 21.8947V22.7368C19.7143 23.2 19.3286 23.5789 18.8571 23.5789H18C17.5286 23.5789 17.1429 23.2 17.1429 22.7368V21.8947ZM22.2857 21.0526H23.1429C23.6143 21.0526 24 21.4316 24 21.8947V22.7368C24 23.2 23.6143 23.5789 23.1429 23.5789H22.2857C21.8143 23.5789 21.4286 23.2 21.4286 22.7368V21.8947C21.4286 21.4316 21.8143 21.0526 22.2857 21.0526Z" fill="#253352"/>
</svg>
