<svg width="25" height="20" viewBox="0 0 25 20" fill="none" xmlns="http://www.w3.org/2000/svg">
<path d="M24.6875 8.75H21.25V5.3125C21.25 5.14062 21.1094 5 20.9375 5H20.3125C20.1406 5 20 5.14062 20 5.3125V8.75H16.5625C16.3906 8.75 16.25 8.89062 16.25 9.0625V9.6875C16.25 9.85938 16.3906 10 16.5625 10H20V13.4375C20 13.6094 20.1406 13.75 20.3125 13.75H20.9375C21.1094 13.75 21.25 13.6094 21.25 13.4375V10H24.6875C24.8594 10 25 9.85938 25 9.6875V9.0625C25 8.89062 24.8594 8.75 24.6875 8.75ZM12.25 11.25C11.1289 11.25 10.5898 11.875 8.75 11.875C6.91016 11.875 6.375 11.25 5.25 11.25C2.35156 11.25 0 13.6016 0 16.5V18.125C0 19.1602 0.839844 20 1.875 20H15.625C16.6602 20 17.5 19.1602 17.5 18.125V16.5C17.5 13.6016 15.1484 11.25 12.25 11.25ZM16.25 18.125C16.25 18.4688 15.9688 18.75 15.625 18.75H1.875C1.53125 18.75 1.25 18.4688 1.25 18.125V16.5C1.25 14.293 3.04297 12.5 5.25 12.5C6.01562 12.5 6.77734 13.125 8.75 13.125C10.7188 13.125 11.4844 12.5 12.25 12.5C14.457 12.5 16.25 14.293 16.25 16.5V18.125ZM8.75 10C11.5117 10 13.75 7.76172 13.75 5C13.75 2.23828 11.5117 0 8.75 0C5.98828 0 3.75 2.23828 3.75 5C3.75 7.76172 5.98828 10 8.75 10ZM8.75 1.25C10.8164 1.25 12.5 2.93359 12.5 5C12.5 7.06641 10.8164 8.75 8.75 8.75C6.68359 8.75 5 7.06641 5 5C5 2.93359 6.68359 1.25 8.75 1.25Z" fill="#3768EC"/>
</svg>
