<svg width="25" height="20" viewBox="0 0 25 20" fill="none" xmlns="http://www.w3.org/2000/svg">
<path d="M2.5 1.25H12.5C13.1914 1.25 13.75 1.80859 13.75 2.5V10.4219C14.1055 9.91797 14.5273 9.46484 15 9.07031V2.5C15 1.12109 13.8789 0 12.5 0H2.5C1.12109 0 0 1.12109 0 2.5V17.5C0 18.8789 1.12109 20 2.5 20H5H6.25H8.75H10H12.5C13.2617 20 13.9453 19.6602 14.4023 19.1211C14.1016 18.8086 13.832 18.4648 13.5977 18.1016C13.3867 18.4883 12.9727 18.75 12.5 18.75H10V16.25C10 14.8711 8.87891 13.75 7.5 13.75C6.12109 13.75 5 14.8711 5 16.25V18.75H2.5C1.80859 18.75 1.25 18.1914 1.25 17.5V2.5C1.25 1.80859 1.80859 1.25 2.5 1.25ZM8.75 16.25V18.75H6.25V16.25C6.25 15.5586 6.80859 15 7.5 15C8.19141 15 8.75 15.5586 8.75 16.25ZM2.5 4.6875V6.5625C2.5 7.08203 2.91797 7.5 3.4375 7.5H5.3125C5.83203 7.5 6.25 7.08203 6.25 6.5625V4.6875C6.25 4.16797 5.83203 3.75 5.3125 3.75H3.4375C2.91797 3.75 2.5 4.16797 2.5 4.6875ZM3.75 5H5V6.25H3.75V5ZM9.6875 3.75C9.16797 3.75 8.75 4.16797 8.75 4.6875V6.5625C8.75 7.08203 9.16797 7.5 9.6875 7.5H11.5625C12.082 7.5 12.5 7.08203 12.5 6.5625V4.6875C12.5 4.16797 12.082 3.75 11.5625 3.75H9.6875ZM10 6.25V5H11.25V6.25H10ZM2.5 9.6875V11.5625C2.5 12.082 2.91797 12.5 3.4375 12.5H5.3125C5.83203 12.5 6.25 12.082 6.25 11.5625V9.6875C6.25 9.16797 5.83203 8.75 5.3125 8.75H3.4375C2.91797 8.75 2.5 9.16797 2.5 9.6875ZM3.75 10H5V11.25H3.75V10ZM9.6875 8.75C9.16797 8.75 8.75 9.16797 8.75 9.6875V11.5625C8.75 12.082 9.16797 12.5 9.6875 12.5H11.5625C12.082 12.5 12.5 12.082 12.5 11.5625V9.6875C12.5 9.16797 12.082 8.75 11.5625 8.75H9.6875ZM10 11.25V10H11.25V11.25H10ZM15 14.375C15 13.8005 15.1132 13.2316 15.333 12.7008C15.5529 12.17 15.8752 11.6877 16.2814 11.2814C16.6877 10.8752 17.17 10.5529 17.7008 10.333C18.2316 10.1132 18.8005 10 19.375 10C19.9495 10 20.5184 10.1132 21.0492 10.333C21.58 10.5529 22.0623 10.8752 22.4686 11.2814C22.8748 11.6877 23.1971 12.17 23.417 12.7008C23.6368 13.2316 23.75 13.8005 23.75 14.375C23.75 14.9495 23.6368 15.5184 23.417 16.0492C23.1971 16.58 22.8748 17.0623 22.4686 17.4686C22.0623 17.8748 21.58 18.1971 21.0492 18.417C20.5184 18.6368 19.9495 18.75 19.375 18.75C18.8005 18.75 18.2316 18.6368 17.7008 18.417C17.17 18.1971 16.6877 17.8748 16.2814 17.4686C15.8752 17.0623 15.5529 16.58 15.333 16.0492C15.1132 15.5184 15 14.9495 15 14.375ZM25 14.375C25 12.8832 24.4074 11.4524 23.3525 10.3975C22.2976 9.34263 20.8668 8.75 19.375 8.75C17.8832 8.75 16.4524 9.34263 15.3975 10.3975C14.3426 11.4524 13.75 12.8832 13.75 14.375C13.75 15.8668 14.3426 17.2976 15.3975 18.3525C16.4524 19.4074 17.8832 20 19.375 20C20.8668 20 22.2976 19.4074 23.3525 18.3525C24.4074 17.2976 25 15.8668 25 14.375Z" fill="#3768EC"/>
<path d="M16.25 14.375C16.25 14.7188 16.5312 15 16.875 15H18.75V16.875C18.75 17.2188 19.0312 17.5 19.375 17.5C19.7188 17.5 20 17.2188 20 16.875V15H21.875C22.2188 15 22.5 14.7188 22.5 14.375C22.5 14.0312 22.2188 13.75 21.875 13.75H20V11.875C20 11.5312 19.7188 11.25 19.375 11.25C19.0312 11.25 18.75 11.5312 18.75 11.875V13.75H16.875C16.5312 13.75 16.25 14.0312 16.25 14.375Z" fill="#3768EC"/>
</svg>
