<svg width="18" height="20" viewBox="0 0 18 20" fill="none" xmlns="http://www.w3.org/2000/svg">
<path d="M4.5 0C4.85357 0 5.14286 0.28125 5.14286 0.625V2.5H12.8571V0.625C12.8571 0.28125 13.1464 0 13.5 0C13.8536 0 14.1429 0.28125 14.1429 0.625V2.5H15.4286C16.8469 2.5 18 3.62109 18 5V6.25V7.5V17.5C18 18.8789 16.8469 20 15.4286 20H2.57143C1.15313 20 0 18.8789 0 17.5V7.5V6.25V5C0 3.62109 1.15313 2.5 2.57143 2.5H3.85714V0.625C3.85714 0.28125 4.14643 0 4.5 0ZM16.7143 7.5H1.28571V17.5C1.28571 18.1914 1.86027 18.75 2.57143 18.75H15.4286C16.1397 18.75 16.7143 18.1914 16.7143 17.5V7.5ZM15.4286 3.75H2.57143C1.86027 3.75 1.28571 4.30859 1.28571 5V6.25H16.7143V5C16.7143 4.30859 16.1397 3.75 15.4286 3.75ZM15.4286 10.625C15.4286 10.9688 15.1393 11.25 14.7857 11.25H8.35714C8.00357 11.25 7.71429 10.9688 7.71429 10.625C7.71429 10.2812 8.00357 10 8.35714 10H14.7857C15.1393 10 15.4286 10.2812 15.4286 10.625ZM9.64286 16.25H3.21429C2.86071 16.25 2.57143 15.9688 2.57143 15.625C2.57143 15.2812 2.86071 15 3.21429 15H9.64286C9.99643 15 10.2857 15.2812 10.2857 15.625C10.2857 15.9688 9.99643 16.25 9.64286 16.25ZM3.85714 10.625C3.85714 10.7908 3.92487 10.9497 4.04543 11.0669C4.16599 11.1842 4.3295 11.25 4.5 11.25C4.6705 11.25 4.83401 11.1842 4.95457 11.0669C5.07513 10.9497 5.14286 10.7908 5.14286 10.625C5.14286 10.4592 5.07513 10.3003 4.95457 10.1831C4.83401 10.0658 4.6705 10 4.5 10C4.3295 10 4.16599 10.0658 4.04543 10.1831C3.92487 10.3003 3.85714 10.4592 3.85714 10.625ZM4.5 12.5C3.98851 12.5 3.49797 12.3025 3.13629 11.9508C2.77462 11.5992 2.57143 11.1223 2.57143 10.625C2.57143 10.1277 2.77462 9.65081 3.13629 9.29917C3.49797 8.94754 3.98851 8.75 4.5 8.75C5.01149 8.75 5.50203 8.94754 5.86371 9.29917C6.22538 9.65081 6.42857 10.1277 6.42857 10.625C6.42857 11.1223 6.22538 11.5992 5.86371 11.9508C5.50203 12.3025 5.01149 12.5 4.5 12.5ZM13.5 16.25C13.6705 16.25 13.834 16.1842 13.9546 16.0669C14.0751 15.9497 14.1429 15.7908 14.1429 15.625C14.1429 15.4592 14.0751 15.3003 13.9546 15.1831C13.834 15.0658 13.6705 15 13.5 15C13.3295 15 13.166 15.0658 13.0454 15.1831C12.9249 15.3003 12.8571 15.4592 12.8571 15.625C12.8571 15.7908 12.9249 15.9497 13.0454 16.0669C13.166 16.1842 13.3295 16.25 13.5 16.25ZM15.4286 15.625C15.4286 16.1223 15.2254 16.5992 14.8637 16.9508C14.502 17.3025 14.0115 17.5 13.5 17.5C12.9885 17.5 12.498 17.3025 12.1363 16.9508C11.7746 16.5992 11.5714 16.1223 11.5714 15.625C11.5714 15.1277 11.7746 14.6508 12.1363 14.2992C12.498 13.9475 12.9885 13.75 13.5 13.75C14.0115 13.75 14.502 13.9475 14.8637 14.2992C15.2254 14.6508 15.4286 15.1277 15.4286 15.625Z" fill="#3768EC"/>
</svg>
