<svg width="18" height="16" viewBox="0 0 18 16" fill="none" xmlns="http://www.w3.org/2000/svg">
<path d="M6.71836 0C5.99063 0 5.34727 0.471429 5.11875 1.17143L4.74961 2.28571H2.25C1.00898 2.28571 0 3.31071 0 4.57143V13.7143C0 14.975 1.00898 16 2.25 16H15.75C16.991 16 18 14.975 18 13.7143V4.57143C18 3.31071 16.991 2.28571 15.75 2.28571H13.2504L12.8848 1.17143C12.6527 0.471429 12.0094 0 11.2816 0H6.71836ZM6.18398 1.53214C6.26133 1.3 6.47578 1.14286 6.71836 1.14286H11.2852C11.5277 1.14286 11.7422 1.3 11.8195 1.53214L12.3117 3.03571C12.3891 3.26786 12.6035 3.425 12.8461 3.425H15.7535C16.3758 3.425 16.8785 3.93571 16.8785 4.56786V13.7107C16.8785 14.3429 16.3758 14.8536 15.7535 14.8536L2.25 14.8571C1.62773 14.8571 1.125 14.3464 1.125 13.7143V4.57143C1.125 3.93929 1.62773 3.42857 2.25 3.42857H5.15742C5.4 3.42857 5.61445 3.27143 5.6918 3.03929L6.18398 1.53571V1.53214ZM9 13.1429C9.51708 13.1429 10.0291 13.0394 10.5068 12.8384C10.9845 12.6374 11.4186 12.3427 11.7842 11.9713C12.1499 11.5999 12.4399 11.1589 12.6378 10.6736C12.8357 10.1883 12.9375 9.66815 12.9375 9.14286C12.9375 8.61757 12.8357 8.09743 12.6378 7.61212C12.4399 7.12682 12.1499 6.68586 11.7842 6.31443C11.4186 5.943 10.9845 5.64836 10.5068 5.44734C10.0291 5.24632 9.51708 5.14286 9 5.14286C8.48292 5.14286 7.9709 5.24632 7.49318 5.44734C7.01546 5.64836 6.5814 5.943 6.21577 6.31443C5.85014 6.68586 5.5601 7.12682 5.36222 7.61212C5.16435 8.09743 5.0625 8.61757 5.0625 9.14286C5.0625 9.66815 5.16435 10.1883 5.36222 10.6736C5.5601 11.1589 5.85014 11.5999 6.21577 11.9713C6.5814 12.3427 7.01546 12.6374 7.49318 12.8384C7.9709 13.0394 8.48292 13.1429 9 13.1429ZM6.1875 9.14286C6.1875 8.3851 6.48382 7.65837 7.01126 7.12255C7.53871 6.58673 8.25408 6.28571 9 6.28571C9.74592 6.28571 10.4613 6.58673 10.9887 7.12255C11.5162 7.65837 11.8125 8.3851 11.8125 9.14286C11.8125 9.90062 11.5162 10.6273 10.9887 11.1632C10.4613 11.699 9.74592 12 9 12C8.25408 12 7.53871 11.699 7.01126 11.1632C6.48382 10.6273 6.1875 9.90062 6.1875 9.14286Z" fill="#253352"/>
</svg>
