<svg width="20" height="20" viewBox="0 0 20 20" fill="currentColor" xmlns="http://www.w3.org/2000/svg">
<path d="M17.942 6.06754L7.94205 16.0675C7.884 16.1256 7.81507 16.1717 7.7392 16.2032C7.66332 16.2347 7.58199 16.2508 7.49986 16.2508C7.41772 16.2508 7.3364 16.2347 7.26052 16.2032C7.18465 16.1717 7.11572 16.1256 7.05767 16.0675L2.68267 11.6925C2.5654 11.5753 2.49951 11.4162 2.49951 11.2503C2.49951 11.0845 2.5654 10.9254 2.68267 10.8082C2.79995 10.6909 2.95901 10.625 3.12486 10.625C3.29071 10.625 3.44977 10.6909 3.56705 10.8082L7.49986 14.7418L17.0577 5.18316C17.1749 5.06588 17.334 5 17.4999 5C17.6657 5 17.8248 5.06588 17.942 5.18316C18.0593 5.30044 18.1252 5.4595 18.1252 5.62535C18.1252 5.7912 18.0593 5.95026 17.942 6.06754Z" fill="currentColor"/>
</svg>
