<svg width="24" height="24" viewBox="0 0 24 24" fill="none" xmlns="http://www.w3.org/2000/svg">
<g clip-path="url(#clip0_23_412)">
<path d="M22.5 12C22.5 14.7848 21.3938 17.4555 19.4246 19.4246C17.4555 21.3938 14.7848 22.5 12 22.5C9.21523 22.5 6.54451 21.3938 4.57538 19.4246C2.60625 17.4555 1.5 14.7848 1.5 12C1.5 9.21523 2.60625 6.54451 4.57538 4.57538C6.54451 2.60625 9.21523 1.5 12 1.5C14.7848 1.5 17.4555 2.60625 19.4246 4.57538C21.3938 6.54451 22.5 9.21523 22.5 12ZM0 12C0 15.1826 1.26428 18.2348 3.51472 20.4853C5.76516 22.7357 8.8174 24 12 24C15.1826 24 18.2348 22.7357 20.4853 20.4853C22.7357 18.2348 24 15.1826 24 12C24 8.8174 22.7357 5.76516 20.4853 3.51472C18.2348 1.26428 15.1826 0 12 0C8.8174 0 5.76516 1.26428 3.51472 3.51472C1.26428 5.76516 0 8.8174 0 12ZM11.25 5.25V12C11.25 12.2484 11.3766 12.4828 11.5828 12.6234L16.0828 15.6234C16.4297 15.8531 16.8937 15.7594 17.1234 15.4172C17.3531 15.075 17.2594 14.6063 16.9172 14.3766L12.75 11.5969V5.25C12.75 4.8375 12.4125 4.5 12 4.5C11.5875 4.5 11.25 4.8375 11.25 5.25Z" fill="#253352"/>
</g>
<defs>
<clipPath id="clip0_23_412">
<rect width="24" height="24" fill="white"/>
</clipPath>
</defs>
</svg>
