<svg width="20" height="20" viewBox="0 0 20 20" fill="none" xmlns="http://www.w3.org/2000/svg">
<path d="M1.25 5.15625V1.875C1.25 1.53125 0.96875 1.25 0.625 1.25C0.28125 1.25 0 1.53125 0 1.875V6.875C0 7.21875 0.28125 7.5 0.625 7.5H5.625C5.96875 7.5 6.25 7.21875 6.25 6.875C6.25 6.53125 5.96875 6.25 5.625 6.25H2.09375C3.49609 3.29297 6.51172 1.25 10 1.25C14.832 1.25 18.75 5.16797 18.75 10C18.75 14.832 14.832 18.75 10 18.75C7.13672 18.75 4.59766 17.375 3 15.25C2.79297 14.9727 2.40234 14.918 2.125 15.125C1.84766 15.332 1.79297 15.7227 2 16C3.82422 18.4297 6.72656 20 10 20C15.5234 20 20 15.5234 20 10C20 4.47656 15.5234 0 10 0C6.23438 0 2.95703 2.08203 1.25 5.15625ZM10 5C9.65625 5 9.375 5.28125 9.375 5.625V10C9.375 10.1641 9.44141 10.3242 9.55859 10.4414L12.6836 13.5664C12.9258 13.8086 13.3242 13.8086 13.5664 13.5664C13.8086 13.3242 13.8086 12.9258 13.5664 12.6836L10.625 9.74219V5.625C10.625 5.28125 10.3438 5 10 5Z" fill="#3768EC"/>
</svg>
