<svg width="18" height="20" viewBox="0 0 18 20" fill="none" xmlns="http://www.w3.org/2000/svg">
<path d="M6.59732 1.54297L5.98259 2.5H12.0214L11.4027 1.54297C11.2862 1.35938 11.0772 1.25 10.8563 1.25H7.13973C6.91875 1.25 6.71384 1.35938 6.5933 1.54297H6.59732ZM12.4955 0.882812L13.5362 2.5H15.4286H16.7143H17.3571C17.7107 2.5 18 2.78125 18 3.125C18 3.46875 17.7107 3.75 17.3571 3.75H16.7143V16.875C16.7143 18.6016 15.2759 20 13.5 20H4.5C2.72411 20 1.28571 18.6016 1.28571 16.875V3.75H0.642857C0.289286 3.75 0 3.46875 0 3.125C0 2.78125 0.289286 2.5 0.642857 2.5H1.28571H2.57143H4.46384L5.50446 0.882812C5.85804 0.332031 6.47679 0 7.13973 0H10.8563C11.5232 0 12.1379 0.332031 12.4915 0.882812H12.4955ZM2.57143 3.75V16.875C2.57143 17.9102 3.43527 18.75 4.5 18.75H13.5C14.5647 18.75 15.4286 17.9102 15.4286 16.875V3.75H2.57143ZM5.78571 6.875V15.625C5.78571 15.9688 5.49643 16.25 5.14286 16.25C4.78929 16.25 4.5 15.9688 4.5 15.625V6.875C4.5 6.53125 4.78929 6.25 5.14286 6.25C5.49643 6.25 5.78571 6.53125 5.78571 6.875ZM9.64286 6.875V15.625C9.64286 15.9688 9.35357 16.25 9 16.25C8.64643 16.25 8.35714 15.9688 8.35714 15.625V6.875C8.35714 6.53125 8.64643 6.25 9 6.25C9.35357 6.25 9.64286 6.53125 9.64286 6.875ZM13.5 6.875V15.625C13.5 15.9688 13.2107 16.25 12.8571 16.25C12.5036 16.25 12.2143 15.9688 12.2143 15.625V6.875C12.2143 6.53125 12.5036 6.25 12.8571 6.25C13.2107 6.25 13.5 6.53125 13.5 6.875Z" fill="#3768EC"/>
</svg>
