<svg width="15" height="20" viewBox="0 0 15 20" fill="none" xmlns="http://www.w3.org/2000/svg">
<path d="M14.4492 3.82812L11.1719 0.550781C10.8203 0.199219 10.3438 0 9.84766 0H1.875C0.839844 0.00390625 0 0.84375 0 1.87891V18.125C0 19.1602 0.839844 20 1.875 20H13.125C14.1602 20 15 19.1602 15 18.125V5.15625C15 4.66016 14.8008 4.17969 14.4492 3.82812ZM10 1.27344C10.1094 1.30078 10.207 1.35547 10.2891 1.4375L13.5664 4.71484C13.6484 4.79688 13.7031 4.89453 13.7305 5.00391H10V1.27344ZM13.75 18.125C13.75 18.4688 13.4688 18.75 13.125 18.75H1.875C1.53125 18.75 1.25 18.4688 1.25 18.125V1.87891C1.25 1.53516 1.53125 1.25 1.875 1.25H8.75V5.31641C8.75 5.83594 9.16797 6.25 9.6875 6.25H13.75V18.125ZM8.125 8.4375C8.125 8.26562 7.98438 8.125 7.8125 8.125H7.1875C7.01562 8.125 6.875 8.26562 6.875 8.4375V11.875H4.81641C4.38672 11.875 4.01172 12.125 3.83984 12.5273C3.66406 12.9375 3.74609 13.4102 4.05078 13.7305L6.71094 16.5352C6.91797 16.7539 7.19922 16.875 7.49609 16.875C7.79297 16.875 8.07422 16.7539 8.28125 16.5352L10.9414 13.7305C11.2461 13.4102 11.3281 12.9375 11.1523 12.5273C10.9805 12.125 10.6055 11.875 10.1758 11.875H8.125V8.4375ZM9.79688 13.125L7.5 15.5469L5.20312 13.125H9.80078H9.79688Z" fill="currentColor"/>
</svg>
