<svg width="20" height="15" viewBox="0 0 20 15" fill="none" xmlns="http://www.w3.org/2000/svg">
<path d="M2.5 1.25C1.80859 1.25 1.25 1.80859 1.25 2.5V4.05859L8.89062 9.66016C9.55078 10.1445 10.4492 10.1445 11.1094 9.66016L18.75 4.05859V2.5C18.75 1.80859 18.1914 1.25 17.5 1.25H2.5ZM1.25 5.60938V12.5C1.25 13.1914 1.80859 13.75 2.5 13.75H17.5C18.1914 13.75 18.75 13.1914 18.75 12.5V5.60938L11.8477 10.668C10.7461 11.4727 9.25 11.4727 8.15234 10.668L1.25 5.60938ZM0 2.5C0 1.12109 1.12109 0 2.5 0H17.5C18.8789 0 20 1.12109 20 2.5V12.5C20 13.8789 18.8789 15 17.5 15H2.5C1.12109 15 0 13.8789 0 12.5V2.5Z" fill="#253352"/>
</svg>
