<svg width="23" height="20" viewBox="0 0 23 20" fill="none" xmlns="http://www.w3.org/2000/svg">
<path d="M0.208907 10.5045C-0.0696357 10.2277 -0.0696357 9.77232 0.208907 9.49554L5.95947 3.78125C6.23801 3.50446 6.69626 3.50446 6.9748 3.78125C7.25334 4.05804 7.25334 4.51339 6.9748 4.79018L2.45073 9.28571H15.093C15.4883 9.28571 15.8118 9.60714 15.8118 10C15.8118 10.3929 15.4883 10.7143 15.093 10.7143H2.45073L6.9748 15.2098C7.25334 15.4866 7.25334 15.942 6.9748 16.2188C6.69626 16.4955 6.23801 16.4955 5.95947 16.2188L0.208907 10.5045ZM15.093 1.42857C14.6976 1.42857 14.3742 1.10714 14.3742 0.714286C14.3742 0.321429 14.6976 0 15.093 0H19.4059C21.3916 0 23 1.59821 23 3.57143V16.4286C23 18.4018 21.3916 20 19.4059 20H15.093C14.6976 20 14.3742 19.6786 14.3742 19.2857C14.3742 18.8929 14.6976 18.5714 15.093 18.5714H19.4059C20.5964 18.5714 21.5624 17.6116 21.5624 16.4286V3.57143C21.5624 2.38839 20.5964 1.42857 19.4059 1.42857H15.093Z" fill="#3768EC"/>
</svg>
