<svg width="18" height="24" viewBox="0 0 18 24" fill="none" xmlns="http://www.w3.org/2000/svg">
<path d="M16.5 9.02335C16.5 4.86885 13.1438 1.50389 9 1.50389C4.85625 1.50389 1.5 4.86885 1.5 9.02335C1.5 9.7565 1.75312 10.7622 2.27812 12.0029C2.78906 13.2201 3.50625 14.5408 4.32187 15.8614C5.92031 18.4603 7.80938 20.9464 9.00469 22.4409C10.1953 20.9464 12.0891 18.4603 13.6875 15.8614C14.4984 14.5408 15.2203 13.2154 15.7313 12.0029C16.2469 10.7622 16.5 9.7565 16.5 9.02335ZM18 9.02335C18 13.1309 12.5156 20.4435 10.1109 23.4607C9.53437 24.1798 8.46563 24.1798 7.88906 23.4607C5.48438 20.4435 0 13.1309 0 9.02335C0 4.04171 4.03125 0 9 0C13.9688 0 18 4.04171 18 9.02335ZM6.75 9.02335C6.75 9.62164 6.98705 10.1954 7.40901 10.6185C7.83097 11.0415 8.40326 11.2792 9 11.2792C9.59674 11.2792 10.169 11.0415 10.591 10.6185C11.0129 10.1954 11.25 9.62164 11.25 9.02335C11.25 8.42507 11.0129 7.85128 10.591 7.42823C10.169 7.00518 9.59674 6.76751 9 6.76751C8.40326 6.76751 7.83097 7.00518 7.40901 7.42823C6.98705 7.85128 6.75 8.42507 6.75 9.02335ZM9 12.7831C8.00544 12.7831 7.05161 12.387 6.34835 11.6819C5.64509 10.9768 5.25 10.0205 5.25 9.02335C5.25 8.02621 5.64509 7.06991 6.34835 6.36482C7.05161 5.65973 8.00544 5.26362 9 5.26362C9.99456 5.26362 10.9484 5.65973 11.6517 6.36482C12.3549 7.06991 12.75 8.02621 12.75 9.02335C12.75 10.0205 12.3549 10.9768 11.6517 11.6819C10.9484 12.387 9.99456 12.7831 9 12.7831Z" fill="#253352"/>
</svg>
