<svg width="20" height="20" viewBox="0 0 20 20" fill="none" xmlns="http://www.w3.org/2000/svg">
<path d="M5.32286 10.7477C5.96337 10.4743 6.70543 10.654 7.14676 11.1929L8.44341 12.7786C10.24 11.7358 11.7397 10.2361 12.7825 8.4395L11.2007 7.14676C10.6618 6.70543 10.4782 5.96337 10.7555 5.32286L12.6302 0.948615C12.9231 0.261234 13.6613 -0.121512 14.3916 0.0347108L18.7658 0.972048C19.4845 1.12437 20 1.76097 20 2.49913C20 11.7436 12.8333 19.3126 3.75282 19.9531C3.57707 19.9648 3.39741 19.9766 3.21775 19.9844H3.21385C2.97561 19.9922 2.74127 20 2.49913 20C1.76097 20 1.12437 19.4845 0.972048 18.7658L0.0347108 14.3916C-0.121512 13.6613 0.261234 12.9231 0.948615 12.6302L5.32286 10.7555V10.7477ZM2.51475 18.7463C11.4819 18.7385 18.7502 11.4702 18.7502 2.49913C18.7502 2.35072 18.6487 2.22574 18.5042 2.19449L14.1299 1.25716C13.9854 1.22591 13.837 1.30402 13.7784 1.44072L11.9037 5.81496C11.8491 5.94384 11.8842 6.09225 11.9936 6.17818L13.5792 7.47483C14.0557 7.86148 14.1768 8.53714 13.8683 9.0683C12.7161 11.0562 11.0601 12.7122 9.07611 13.8604C8.54495 14.169 7.86929 14.044 7.48264 13.5714L6.18599 11.9858C6.09616 11.8764 5.94775 11.8413 5.82277 11.8959L1.44853 13.7706C1.31183 13.8292 1.23372 13.9776 1.26497 14.1221L2.2023 18.4964C2.23355 18.6409 2.36243 18.7424 2.50694 18.7424C2.51084 18.7424 2.51475 18.7424 2.51866 18.7424L2.51475 18.7463Z" fill="#253352"/>
</svg>
