<svg width="15" height="20" viewBox="0 0 15 20" fill="none" xmlns="http://www.w3.org/2000/svg">
<path d="M13.75 7.51946C13.75 4.05737 10.9531 1.25324 7.5 1.25324C4.04688 1.25324 1.25 4.05737 1.25 7.51946C1.25 8.13042 1.46094 8.96852 1.89844 10.0024C2.32422 11.0168 2.92188 12.1173 3.60156 13.2178C4.93359 15.3836 6.50781 17.4553 7.50391 18.7007C8.49609 17.4553 10.0742 15.3836 11.4062 13.2178C12.082 12.1173 12.6836 11.0129 13.1094 10.0024C13.5391 8.96852 13.75 8.13042 13.75 7.51946ZM15 7.51946C15 10.9424 10.4297 17.0363 8.42578 19.5506C7.94531 20.1498 7.05469 20.1498 6.57422 19.5506C4.57031 17.0363 0 10.9424 0 7.51946C0 3.36809 3.35938 0 7.5 0C11.6406 0 15 3.36809 15 7.51946ZM5.625 7.51946C5.625 8.01803 5.82254 8.49618 6.17417 8.84872C6.52581 9.20127 7.00272 9.39932 7.5 9.39932C7.99728 9.39932 8.47419 9.20127 8.82583 8.84872C9.17746 8.49618 9.375 8.01803 9.375 7.51946C9.375 7.02089 9.17746 6.54274 8.82583 6.19019C8.47419 5.83765 7.99728 5.63959 7.5 5.63959C7.00272 5.63959 6.52581 5.83765 6.17417 6.19019C5.82254 6.54274 5.625 7.02089 5.625 7.51946ZM7.5 10.6526C6.6712 10.6526 5.87634 10.3225 5.29029 9.7349C4.70424 9.14733 4.375 8.35041 4.375 7.51946C4.375 6.68851 4.70424 5.89159 5.29029 5.30402C5.87634 4.71645 6.6712 4.38635 7.5 4.38635C8.3288 4.38635 9.12366 4.71645 9.70971 5.30402C10.2958 5.89159 10.625 6.68851 10.625 7.51946C10.625 8.35041 10.2958 9.14733 9.70971 9.7349C9.12366 10.3225 8.3288 10.6526 7.5 10.6526Z" fill="currentColor"/>
</svg>
