<svg width="236" height="102" viewBox="0 0 236 102" fill="none" xmlns="http://www.w3.org/2000/svg">
<rect y="90" width="120" height="12" fill="#E8EEF1"/>
<g clip-path="url(#clip0_2033_969)">
<circle cx="20" cy="20" r="20" fill="#E8EEF1"/>
<path d="M19.2906 13.625V25H17.3297L12.2281 16.8516V25H10.2672V13.625H12.2281L17.3453 21.7891V13.625H19.2906ZM26.0469 20.7578H23.0859V19.2031H26.0469C26.5625 19.2031 26.9792 19.1198 27.2969 18.9531C27.6146 18.7865 27.8464 18.5573 27.9922 18.2656C28.1432 17.9688 28.2188 17.6302 28.2188 17.25C28.2188 16.8906 28.1432 16.5547 27.9922 16.2422C27.8464 15.9245 27.6146 15.6693 27.2969 15.4766C26.9792 15.2839 26.5625 15.1875 26.0469 15.1875H23.6875V25H21.7266V13.625H26.0469C26.9271 13.625 27.6745 13.7812 28.2891 14.0938C28.9089 14.401 29.3802 14.8281 29.7031 15.375C30.026 15.9167 30.1875 16.5365 30.1875 17.2344C30.1875 17.9688 30.026 18.599 29.7031 19.125C29.3802 19.651 28.9089 20.0547 28.2891 20.3359C27.6745 20.6172 26.9271 20.7578 26.0469 20.7578Z" fill="#E8EEF1"/>
</g>
<rect x="56" y="2" width="150" height="12" fill="#E8EEF1"/>
<rect x="56" y="26" width="180" height="12" fill="#E8EEF1"/>
<rect y="62" width="180" height="12" fill="#E8EEF1"/>
<defs>
<clipPath id="clip0_2033_969">
<rect width="40" height="40" fill="white"/>
</clipPath>
</defs>
</svg>
