<svg width="20" height="20" viewBox="0 0 20 20" fill="none" xmlns="http://www.w3.org/2000/svg">
<path d="M10.7692 0.769231C10.7692 0.346154 10.4231 0 10 0C9.57692 0 9.23077 0.346154 9.23077 0.769231V9.23077H0.769231C0.346154 9.23077 0 9.57692 0 10C0 10.4231 0.346154 10.7692 0.769231 10.7692H9.23077V19.2308C9.23077 19.6538 9.57692 20 10 20C10.4231 20 10.7692 19.6538 10.7692 19.2308V10.7692H19.2308C19.6538 10.7692 20 10.4231 20 10C20 9.57692 19.6538 9.23077 19.2308 9.23077H10.7692V0.769231Z" fill="#3768EC"/>
</svg>
