<svg width="20" height="20" viewBox="0 0 20 20" fill="none" xmlns="http://www.w3.org/2000/svg">
<path d="M15.0015 8.12579C15.0015 7.22287 14.8236 6.32878 14.4781 5.49459C14.1326 4.66039 13.6261 3.90242 12.9876 3.26396C12.3492 2.62549 11.5912 2.11904 10.757 1.7735C9.9228 1.42797 9.02872 1.25012 8.12579 1.25012C7.22287 1.25012 6.32878 1.42797 5.49459 1.7735C4.66039 2.11904 3.90242 2.62549 3.26396 3.26396C2.62549 3.90242 2.11904 4.66039 1.7735 5.49459C1.42797 6.32878 1.25012 7.22287 1.25012 8.12579C1.25012 9.02872 1.42797 9.9228 1.7735 10.757C2.11904 11.5912 2.62549 12.3492 3.26396 12.9876C3.90242 13.6261 4.66039 14.1326 5.49459 14.4781C6.32878 14.8236 7.22287 15.0015 8.12579 15.0015C9.02872 15.0015 9.9228 14.8236 10.757 14.4781C11.5912 14.1326 12.3492 13.6261 12.9876 12.9876C13.6261 12.3492 14.1326 11.5912 14.4781 10.757C14.8236 9.9228 15.0015 9.02872 15.0015 8.12579ZM13.4115 14.2983C11.9934 15.5171 10.1455 16.2516 8.12579 16.2516C3.63707 16.2516 0 12.6145 0 8.12579C0 3.63707 3.63707 0 8.12579 0C12.6145 0 16.2516 3.63707 16.2516 8.12579C16.2516 10.1455 15.5171 11.9934 14.2983 13.4115L19.8183 18.9354C20.0606 19.1777 20.0606 19.5761 19.8183 19.8183C19.5761 20.0606 19.1777 20.0606 18.9354 19.8183L13.4115 14.2983Z" fill="#8591AC"/>
</svg>
