<svg width="23" height="20" viewBox="0 0 23 20" fill="none" xmlns="http://www.w3.org/2000/svg">
<path d="M15.9722 10.9375V9.375V8.75C15.9722 8.40625 15.6847 8.125 15.3333 8.125H14.6944H14.0556H13.4167H11.5599C9.41163 8.125 7.66667 9.82812 7.66667 11.9336C7.66667 12.1406 7.69462 12.3359 7.74253 12.5195C7.00781 11.793 6.38889 10.7812 6.38889 9.375C6.38889 6.61328 8.67691 4.375 11.5 4.375H13.4167H14.6944H15.3333C15.6847 4.375 15.9722 4.09375 15.9722 3.75V3.125V1.5625C15.9722 1.39062 16.116 1.25 16.2917 1.25C16.3755 1.25 16.4514 1.28125 16.5113 1.33594L21.6543 6.10156C21.6943 6.14062 21.7182 6.19141 21.7182 6.25C21.7182 6.30859 21.6943 6.35938 21.6543 6.39844L16.5113 11.1641C16.4514 11.2187 16.3715 11.25 16.2917 11.25C16.112 11.25 15.9722 11.1094 15.9722 10.9375ZM14.6944 9.375V10.625V10.9375C14.6944 11.8008 15.4132 12.5 16.2917 12.5C16.699 12.5 17.0943 12.3477 17.3898 12.0703L22.5368 7.30469C22.8323 7.03125 23 6.64844 23 6.25C23 5.85156 22.8323 5.46875 22.5368 5.19531L17.3938 0.429688C17.0983 0.15625 16.703 0 16.2957 0C15.4132 0 14.6944 0.699219 14.6944 1.5625V1.875V3.125H13.4167H11.5C7.97014 3.125 5.11111 5.92188 5.11111 9.375C5.11111 13.0234 8.41736 14.6406 9.12813 14.9453C9.21597 14.9844 9.31181 15 9.41163 15C9.85885 15 10.2222 14.6445 10.2222 14.207V14.1719C10.2222 13.9062 10.0905 13.6602 9.8908 13.4805C9.51146 13.1445 8.94444 12.5391 8.94444 11.9297C8.94444 10.5195 10.1144 9.37109 11.5599 9.37109H13.4167H14.0556H14.6944V9.375ZM2.55556 1.25C1.14601 1.25 0 2.37109 0 3.75V17.5C0 18.8789 1.14601 20 2.55556 20H16.6111C18.0207 20 19.1667 18.8789 19.1667 17.5V15.625C19.1667 15.2812 18.8792 15 18.5278 15C18.1764 15 17.8889 15.2812 17.8889 15.625V17.5C17.8889 18.1914 17.3179 18.75 16.6111 18.75H2.55556C1.84878 18.75 1.27778 18.1914 1.27778 17.5V3.75C1.27778 3.05859 1.84878 2.5 2.55556 2.5H4.47222C4.82361 2.5 5.11111 2.21875 5.11111 1.875C5.11111 1.53125 4.82361 1.25 4.47222 1.25H2.55556Z" fill="#3768EC"/>
</svg>
