<svg width="20" height="19" viewBox="0 0 20 19" fill="none" xmlns="http://www.w3.org/2000/svg">
<path d="M10 19C12.6522 19 15.1957 17.9464 17.0711 16.0711C18.9464 14.1957 20 11.6522 20 9C20 6.34784 18.9464 3.8043 17.0711 1.92893C15.1957 0.0535685 12.6522 -1 10 -1C7.34784 -1 4.8043 0.0535685 2.92893 1.92893C1.05357 3.8043 0 6.34784 0 9C0 11.6522 1.05357 14.1957 2.92893 16.0711C4.8043 17.9464 7.34784 19 10 19ZM6.83594 5.83594C7.20312 5.46875 7.79688 5.46875 8.16016 5.83594L9.99609 7.67188L11.832 5.83594C12.1992 5.46875 12.793 5.46875 13.1562 5.83594C13.5195 6.20312 13.5234 6.79688 13.1562 7.16016L11.3203 8.99609L13.1562 10.832C13.5234 11.1992 13.5234 11.793 13.1562 12.1562C12.7891 12.5195 12.1953 12.5234 11.832 12.1562L9.99609 10.3203L8.16016 12.1562C7.79297 12.5234 7.19922 12.5234 6.83594 12.1562C6.47266 11.7891 6.46875 11.1953 6.83594 10.832L8.67188 8.99609L6.83594 7.16016C6.46875 6.79297 6.46875 6.19922 6.83594 5.83594Z" fill="#C6D5DD"/>
</svg>
