<svg width="130" height="24" viewBox="0 0 130 24" fill="none" xmlns="http://www.w3.org/2000/svg">
<path d="M123.447 23.9996C122.532 23.9996 121.681 23.8468 120.897 23.5411C120.112 23.2354 119.436 22.8059 118.869 22.2528C118.317 21.7142 117.917 21.0737 117.67 20.3313L120.7 19.2613C120.86 19.8145 121.187 20.2512 121.681 20.5715C122.176 20.8917 122.764 21.0518 123.447 21.0518C123.985 21.0518 124.45 20.9499 124.842 20.7461C125.235 20.5569 125.533 20.273 125.736 19.8946C125.954 19.5161 126.063 19.0721 126.063 18.5626V15.8332L126.695 16.6193C126.289 17.2889 125.765 17.7911 125.126 18.1259C124.486 18.4461 123.738 18.6063 122.88 18.6063C121.776 18.6063 120.788 18.3588 119.916 17.8639C119.044 17.3544 118.36 16.6629 117.866 15.7895C117.372 14.9015 117.125 13.8971 117.125 12.7762C117.125 11.6554 117.372 10.6655 117.866 9.80664C118.36 8.93323 119.036 8.24905 119.894 7.75412C120.751 7.25919 121.725 7.01172 122.815 7.01172C123.672 7.01172 124.421 7.1864 125.06 7.53576C125.7 7.87057 126.245 8.38734 126.695 9.08607L126.281 9.87214V7.27374H129.333V18.5626C129.333 19.6107 129.079 20.5423 128.57 21.3575C128.062 22.1873 127.364 22.835 126.477 23.3009C125.605 23.7667 124.595 23.9996 123.447 23.9996ZM123.338 15.6367C123.891 15.6367 124.37 15.5202 124.777 15.2873C125.184 15.0544 125.496 14.7269 125.714 14.3047C125.947 13.8826 126.063 13.3876 126.063 12.8199C126.063 12.2522 125.947 11.7573 125.714 11.3351C125.482 10.8984 125.162 10.5636 124.755 10.3307C124.348 10.0832 123.876 9.95949 123.338 9.95949C122.786 9.95949 122.292 10.0832 121.856 10.3307C121.434 10.5636 121.1 10.8984 120.853 11.3351C120.62 11.7573 120.504 12.2522 120.504 12.8199C120.504 13.3731 120.62 13.8607 120.853 14.2829C121.1 14.705 121.434 15.0398 121.856 15.2873C122.292 15.5202 122.786 15.6367 123.338 15.6367Z" fill="white"/>
<path d="M104.554 19.1958V7.27374H107.606V9.63196L107.432 9.10791C107.708 8.39462 108.151 7.87057 108.762 7.53576C109.387 7.1864 110.113 7.01172 110.942 7.01172C111.843 7.01172 112.628 7.20096 113.296 7.57944C113.979 7.95792 114.51 8.48924 114.888 9.17342C115.266 9.84303 115.455 10.6291 115.455 11.5316V19.1958H112.185V12.2304C112.185 11.7645 112.09 11.3642 111.901 11.0294C111.727 10.6946 111.472 10.4326 111.138 10.2433C110.818 10.0541 110.44 9.95949 110.004 9.95949C109.583 9.95949 109.205 10.0541 108.871 10.2433C108.537 10.4326 108.275 10.6946 108.086 11.0294C107.912 11.3642 107.824 11.7645 107.824 12.2304V19.1958H104.554Z" fill="white"/>
<path d="M98.8914 19.196V7.27394H102.161V19.196H98.8914ZM98.8914 6.20401V2.92871H102.161V6.20401H98.8914Z" fill="white"/>
<path d="M86.1179 19.1958V2.6665H89.3879V13.2566L88.1671 12.8636L93.421 7.27376H97.454L93.1376 12.0775L97.4322 19.1958H93.7262L90.1291 13.1475L92.0258 12.6671L88.3851 16.6411L89.3879 14.7414V19.1958H86.1179Z" fill="white"/>
<path d="M78.6331 19.4579C77.4414 19.4579 76.3659 19.1885 75.4067 18.6499C74.462 18.0968 73.7063 17.3471 73.1394 16.4009C72.5872 15.4547 72.311 14.3921 72.311 13.213C72.311 12.0338 72.5872 10.9785 73.1394 10.0468C73.6917 9.10063 74.4475 8.35823 75.4067 7.81962C76.3659 7.28102 77.4414 7.01172 78.6331 7.01172C79.5197 7.01172 80.3408 7.16457 81.0966 7.47026C81.8523 7.77595 82.4991 8.20538 83.0368 8.75854C83.5746 9.29715 83.9597 9.93765 84.1922 10.6801L81.3582 11.9028C81.1547 11.306 80.8059 10.8329 80.3118 10.4835C79.8322 10.1342 79.2726 9.95949 78.6331 9.95949C78.0663 9.95949 77.5577 10.0978 77.1071 10.3744C76.6711 10.6509 76.3223 11.0367 76.0607 11.5316C75.8136 12.0266 75.6901 12.5943 75.6901 13.2348C75.6901 13.8753 75.8136 14.443 76.0607 14.9379C76.3223 15.4329 76.6711 15.8186 77.1071 16.0952C77.5577 16.3718 78.0663 16.5101 78.6331 16.5101C79.2871 16.5101 79.854 16.3354 80.3336 15.986C80.8132 15.6367 81.1547 15.1636 81.3582 14.5667L84.1922 15.8114C83.9742 16.5101 83.5964 17.136 83.0586 17.6892C82.5209 18.2424 81.8741 18.6791 81.1184 18.9993C80.3626 19.305 79.5342 19.4579 78.6331 19.4579Z" fill="white"/>
<path d="M65.1969 19.4579C63.9324 19.4579 62.8352 19.1813 61.905 18.6281C60.9749 18.0604 60.2555 17.3034 59.7468 16.3572C59.2381 15.411 58.9838 14.3629 58.9838 13.213C58.9838 12.0193 59.2454 10.9566 59.7686 10.025C60.3063 9.09335 61.0257 8.35823 61.9268 7.81962C62.8279 7.28102 63.8452 7.01172 64.9789 7.01172C65.9235 7.01172 66.7592 7.16457 67.4859 7.47026C68.2126 7.7614 68.823 8.17627 69.3171 8.71487C69.8258 9.25348 70.2109 9.87942 70.4726 10.5927C70.7342 11.2914 70.865 12.0557 70.865 12.8854C70.865 13.1183 70.8504 13.3512 70.8214 13.5842C70.8068 13.8025 70.7705 13.9917 70.7124 14.1519H61.796V11.75H68.8593L67.3115 12.8854C67.4568 12.2595 67.4496 11.7063 67.2897 11.2259C67.1298 10.731 66.8464 10.3452 66.4395 10.0687C66.0471 9.77753 65.5602 9.63196 64.9789 9.63196C64.4121 9.63196 63.9252 9.77025 63.5182 10.0468C63.1113 10.3234 62.8061 10.731 62.6026 11.2696C62.3992 11.8082 62.3192 12.4633 62.3628 13.2348C62.3047 13.9044 62.3846 14.494 62.6026 15.0034C62.8206 15.5129 63.1549 15.9133 63.6054 16.2044C64.056 16.481 64.601 16.6193 65.2405 16.6193C65.8218 16.6193 66.316 16.5028 66.7229 16.2699C67.1444 16.037 67.4714 15.7167 67.7039 15.3091L70.32 16.5538C70.0874 17.136 69.7168 17.6455 69.2081 18.0822C68.714 18.5189 68.1254 18.861 67.4423 19.1085C66.7592 19.3414 66.0107 19.4579 65.1969 19.4579Z" fill="white"/>
<path d="M46.413 19.1958V2.6665H49.6831V9.63197L49.2907 9.10792C49.5668 8.39464 50.0101 7.87059 50.6205 7.53578C51.2454 7.18642 51.9721 7.01173 52.8005 7.01173C53.7016 7.01173 54.4864 7.20097 55.155 7.57945C55.838 7.95793 56.3685 8.48926 56.7464 9.17343C57.1243 9.84305 57.3132 10.6291 57.3132 11.5316V19.1958H54.0432V12.2304C54.0432 11.7646 53.9487 11.3642 53.7597 11.0294C53.5853 10.6946 53.331 10.4326 52.9967 10.2434C52.677 10.0541 52.2991 9.9595 51.8631 9.9595C51.4416 9.9595 51.0638 10.0541 50.7295 10.2434C50.3952 10.4326 50.1336 10.6946 49.9447 11.0294C49.7703 11.3642 49.6831 11.7646 49.6831 12.2304V19.1958H46.413Z" fill="white"/>
<path d="M37.5302 19.4579C36.3676 19.4579 35.2848 19.2468 34.282 18.8246C33.2937 18.4025 32.429 17.8129 31.6878 17.056C30.9465 16.299 30.3652 15.4111 29.9437 14.3921C29.5368 13.3731 29.3333 12.2595 29.3333 11.0513C29.3333 9.84305 29.5368 8.72945 29.9437 7.71046C30.3507 6.67693 30.9247 5.78896 31.666 5.04656C32.4072 4.2896 33.2719 3.70732 34.2602 3.29973C35.263 2.87758 36.353 2.6665 37.5302 2.6665C38.7075 2.6665 39.7612 2.86302 40.6913 3.25606C41.636 3.64909 42.4353 4.17314 43.0893 4.8282C43.7434 5.48326 44.2084 6.21111 44.4846 7.01173L41.4979 8.45287C41.2218 7.66679 40.7349 7.01901 40.0373 6.50952C39.3542 5.98547 38.5185 5.72345 37.5302 5.72345C36.571 5.72345 35.7281 5.94908 35.0014 6.40034C34.2747 6.85161 33.7079 7.47755 33.301 8.27818C32.9086 9.06425 32.7124 9.98862 32.7124 11.0513C32.7124 12.1139 32.9086 13.0456 33.301 13.8462C33.7079 14.6468 34.2747 15.2728 35.0014 15.724C35.7281 16.1753 36.571 16.4009 37.5302 16.4009C38.5185 16.4009 39.3542 16.1462 40.0373 15.6367C40.7349 15.1126 41.2218 14.4576 41.4979 13.6715L44.4846 15.1126C44.2084 15.9133 43.7434 16.6411 43.0893 17.2962C42.4353 17.9512 41.636 18.4753 40.6913 18.8683C39.7612 19.2614 38.7075 19.4579 37.5302 19.4579Z" fill="white"/>
<path d="M12.1904 20.5714V12.9523C12.1904 12.5333 12.5333 12.1904 12.9523 12.1904H16C16.419 12.1904 16.7619 12.5333 16.7619 12.9523C16.7619 13.3714 17.1047 13.7142 17.5238 13.7142H19.0476C19.4666 13.7142 19.8095 13.3714 19.8095 12.9523C19.8095 12.5333 20.1523 12.1904 20.5714 12.1904C20.9904 12.1904 21.3333 12.5333 21.3333 12.9523V17.5238C21.3333 17.9428 20.9904 18.2857 20.5714 18.2857H17.5238C17.1047 18.2857 16.7619 17.9428 16.7619 17.5238C16.7619 17.1047 16.419 16.7619 16 16.7619C15.5809 16.7619 15.238 17.1047 15.238 17.5238V20.5714C15.238 20.9904 14.8952 21.3333 14.4761 21.3333H12.9523C12.5333 21.3333 12.1904 20.9904 12.1904 20.5714ZM18.2857 20.5714C18.2857 20.7735 18.2054 20.9672 18.0625 21.1101C17.9196 21.253 17.7258 21.3333 17.5238 21.3333C17.3217 21.3333 17.1279 21.253 16.985 21.1101C16.8421 20.9672 16.7619 20.7735 16.7619 20.5714C16.7619 20.3693 16.8421 20.1755 16.985 20.0326C17.1279 19.8897 17.3217 19.8095 17.5238 19.8095C17.7258 19.8095 17.9196 19.8897 18.0625 20.0326C18.2054 20.1755 18.2857 20.3693 18.2857 20.5714ZM21.3333 20.5714C21.3333 20.7735 21.253 20.9672 21.1101 21.1101C20.9672 21.253 20.7735 21.3333 20.5714 21.3333C20.3693 21.3333 20.1755 21.253 20.0326 21.1101C19.8897 20.9672 19.8095 20.7735 19.8095 20.5714C19.8095 20.3693 19.8897 20.1755 20.0326 20.0326C20.1755 19.8897 20.3693 19.8095 20.5714 19.8095C20.7735 19.8095 20.9672 19.8897 21.1101 20.0326C21.253 20.1755 21.3333 20.3693 21.3333 20.5714Z" fill="white"/>
<path d="M6.85714 0C8.11951 0 9.14286 1.02335 9.14286 2.28571V6.85714C9.14286 8.11951 8.11951 9.14286 6.85714 9.14286H2.28571C1.02335 9.14286 0 8.11951 0 6.85714V2.28571C0 1.02335 1.02335 0 2.28571 0H6.85714ZM3.04762 3.04762V6.09524H6.09524V3.04762H3.04762Z" fill="white"/>
<path d="M6.85714 12.1904C8.11951 12.1904 9.14286 13.2138 9.14286 14.4761V19.0476C9.14286 20.3099 8.11951 21.3333 6.85714 21.3333H2.28571C1.02335 21.3333 0 20.3099 0 19.0476V14.4761C0 13.2138 1.02335 12.1904 2.28571 12.1904H6.85714ZM3.04762 15.238V18.2857H6.09524V15.238H3.04762Z" fill="white"/>
<path d="M19.0476 0C20.3099 0 21.3333 1.02335 21.3333 2.28571V6.85714C21.3333 8.11951 20.3099 9.14286 19.0476 9.14286H14.4761C13.2138 9.14286 12.1904 8.11951 12.1904 6.85714V2.28571C12.1904 1.02335 13.2138 0 14.4761 0H19.0476ZM15.238 3.04762V6.09524H18.2857V3.04762H15.238Z" fill="white"/>
</svg>
