<svg width="194" height="36" viewBox="0 0 194 36" fill="none" xmlns="http://www.w3.org/2000/svg">
<path d="M185.171 35.9999C183.797 35.9999 182.522 35.7706 181.345 35.3121C180.168 34.8535 179.154 34.2094 178.304 33.3796C177.475 32.5717 176.876 31.611 176.505 30.4974L181.051 28.8925C181.29 29.7222 181.781 30.3773 182.522 30.8577C183.263 31.338 184.146 31.5782 185.171 31.5782C185.978 31.5782 186.675 31.4254 187.264 31.1197C187.852 30.8358 188.299 30.41 188.604 29.8423C188.931 29.2746 189.095 28.6086 189.095 27.8444V23.7503L190.043 24.9294C189.433 25.9338 188.648 26.6871 187.689 27.1893C186.73 27.6697 185.607 27.9099 184.321 27.9099C182.664 27.9099 181.181 27.5387 179.873 26.7963C178.565 26.0321 177.541 24.9949 176.8 23.6848C176.058 22.3528 175.688 20.8462 175.688 19.1649C175.688 17.4835 176.058 15.9987 176.8 14.7104C177.541 13.4003 178.554 12.3741 179.841 11.6317C181.127 10.8893 182.588 10.5181 184.223 10.5181C185.509 10.5181 186.632 10.7801 187.591 11.3041C188.55 11.8063 189.367 12.5815 190.043 13.6296L189.422 14.8087V10.9111H194V27.8444C194 29.4165 193.619 30.814 192.856 32.0368C192.093 33.2814 191.046 34.2531 189.716 34.9518C188.408 35.6505 186.893 35.9999 185.171 35.9999ZM185.007 23.4555C185.836 23.4555 186.555 23.2808 187.166 22.9314C187.776 22.5821 188.245 22.0908 188.572 21.4576C188.921 20.8243 189.095 20.0819 189.095 19.2304C189.095 18.3788 188.921 17.6364 188.572 17.0032C188.223 16.3481 187.743 15.8459 187.133 15.4965C186.523 15.1253 185.814 14.9397 185.007 14.9397C184.179 14.9397 183.438 15.1253 182.784 15.4965C182.152 15.8459 181.65 16.3481 181.28 17.0032C180.931 17.6364 180.756 18.3788 180.756 19.2304C180.756 20.0601 180.931 20.7916 181.28 21.4248C181.65 22.058 182.152 22.5602 182.784 22.9314C183.438 23.2808 184.179 23.4555 185.007 23.4555Z" fill="#253352"/>
<path d="M156.832 28.7942V10.9111H161.41V14.4484L161.148 13.6624C161.562 12.5924 162.227 11.8063 163.143 11.3041C164.08 10.7801 165.17 10.5181 166.413 10.5181C167.764 10.5181 168.942 10.8019 169.944 11.3696C170.969 11.9374 171.765 12.7344 172.332 13.7606C172.898 14.765 173.182 15.9441 173.182 17.2979V28.7942H168.277V18.346C168.277 17.6473 168.135 17.0468 167.852 16.5446C167.59 16.0424 167.209 15.6494 166.707 15.3655C166.227 15.0816 165.661 14.9397 165.007 14.9397C164.374 14.9397 163.808 15.0816 163.306 15.3655C162.805 15.6494 162.412 16.0424 162.129 16.5446C161.867 17.0468 161.737 17.6473 161.737 18.346V28.7942H156.832Z" fill="#253352"/>
<path d="M148.337 28.794V10.9109H153.242V28.794H148.337ZM148.337 9.30601V4.39307H153.242V9.30601H148.337Z" fill="#253352"/>
<path d="M129.177 28.7943V4.00024H134.082V19.8854L132.251 19.2959L140.131 10.9111H146.181L139.706 18.1168L146.148 28.7943H140.589L135.194 19.7217L138.039 19.0011L132.578 24.9622L134.082 22.1126V28.7943H129.177Z" fill="#253352"/>
<path d="M117.95 29.1873C116.162 29.1873 114.549 28.7833 113.11 27.9754C111.693 27.1457 110.559 26.0211 109.709 24.6018C108.881 23.1826 108.467 21.5886 108.467 19.8199C108.467 18.0513 108.881 16.4682 109.709 15.0707C110.538 13.6514 111.671 12.5378 113.11 11.7299C114.549 10.922 116.162 10.5181 117.95 10.5181C119.28 10.5181 120.511 10.7473 121.645 11.2059C122.778 11.6644 123.749 12.3086 124.555 13.1383C125.362 13.9462 125.94 14.907 126.288 16.0206L122.037 17.8547C121.732 16.9595 121.209 16.2498 120.468 15.7258C119.748 15.2017 118.909 14.9397 117.95 14.9397C117.099 14.9397 116.336 15.1472 115.661 15.562C115.007 15.9769 114.483 16.5555 114.091 17.2979C113.72 18.0403 113.535 18.8919 113.535 19.8527C113.535 20.8134 113.72 21.665 114.091 22.4074C114.483 23.1498 115.007 23.7284 115.661 24.1433C116.336 24.5582 117.099 24.7656 117.95 24.7656C118.931 24.7656 119.781 24.5036 120.5 23.9795C121.22 23.4555 121.732 22.7458 122.037 21.8506L126.288 23.7175C125.961 24.7656 125.395 25.7045 124.588 26.5343C123.781 27.364 122.811 28.0191 121.678 28.4995C120.544 28.958 119.301 29.1873 117.95 29.1873Z" fill="#253352"/>
<path d="M97.7954 29.1873C95.8987 29.1873 94.2528 28.7724 92.8576 27.9427C91.4624 27.0911 90.3832 25.9556 89.6202 24.5363C88.8572 23.117 88.4757 21.5449 88.4757 19.8199C88.4757 18.0294 88.8681 16.4354 89.6529 15.038C90.4595 13.6405 91.5387 12.5378 92.8903 11.7299C94.2419 10.922 95.7679 10.5181 97.4684 10.5181C98.8854 10.5181 100.139 10.7473 101.229 11.2059C102.319 11.6426 103.235 12.2649 103.976 13.0728C104.739 13.8807 105.316 14.8196 105.709 15.8896C106.101 16.9376 106.298 18.084 106.298 19.3286C106.298 19.678 106.276 20.0274 106.232 20.3767C106.21 20.7042 106.156 20.9881 106.069 21.2283H92.6941V17.6255H103.289L100.967 19.3286C101.185 18.3897 101.174 17.56 100.935 16.8394C100.695 16.097 100.27 15.5184 99.6593 15.1035C99.0707 14.6668 98.3404 14.4484 97.4684 14.4484C96.6181 14.4484 95.8878 14.6559 95.2774 15.0707C94.667 15.4856 94.2092 16.097 93.904 16.9049C93.5988 17.7128 93.4789 18.6954 93.5443 19.8527C93.4571 20.8571 93.577 21.7414 93.904 22.5057C94.231 23.2699 94.7324 23.8704 95.4082 24.3071C96.084 24.7219 96.9015 24.9294 97.8608 24.9294C98.7328 24.9294 99.474 24.7547 100.084 24.4053C100.717 24.056 101.207 23.5756 101.556 22.9642L105.48 24.8311C105.131 25.7045 104.575 26.4688 103.812 27.1238C103.071 27.7789 102.188 28.292 101.164 28.6632C100.139 29.0126 99.0162 29.1873 97.7954 29.1873Z" fill="#253352"/>
<path d="M69.6195 28.7943V4.00024H74.5246V14.4484L73.936 13.6624C74.3502 12.5924 75.0151 11.8064 75.9307 11.3042C76.8681 10.7801 77.9581 10.5181 79.2008 10.5181C80.5524 10.5181 81.7296 10.8019 82.7324 11.3697C83.757 11.9374 84.5528 12.7344 85.1196 13.7606C85.6864 14.7651 85.9698 15.9442 85.9698 17.298V28.7943H81.0647V18.3461C81.0647 17.6473 80.923 17.0469 80.6396 16.5446C80.378 16.0424 79.9965 15.6494 79.4951 15.3655C79.0155 15.0817 78.4487 14.9397 77.7946 14.9397C77.1624 14.9397 76.5956 15.0817 76.0942 15.3655C75.5928 15.6494 75.2004 16.0424 74.917 16.5446C74.6554 17.0469 74.5246 17.6473 74.5246 18.3461V28.7943H69.6195Z" fill="#253352"/>
<path d="M56.2954 29.187C54.5514 29.187 52.9272 28.8704 51.423 28.2372C49.9406 27.604 48.6435 26.7197 47.5317 25.5842C46.4198 24.4488 45.5478 23.1168 44.9156 21.5884C44.3052 20.0599 44 18.3895 44 16.5771C44 14.7648 44.3052 13.0944 44.9156 11.5659C45.526 10.0156 46.3871 8.68368 47.499 7.57008C48.6108 6.43464 49.9079 5.56123 51.3903 4.94984C52.8945 4.31661 54.5296 4 56.2954 4C58.0612 4 59.6418 4.29478 61.037 4.88433C62.454 5.47389 63.653 6.25996 64.634 7.24254C65.6151 8.22513 66.3127 9.3169 66.7269 10.5178L62.2469 12.6795C61.8327 11.5004 61.1024 10.5288 60.056 9.76453C59.0313 8.97845 57.7778 8.58542 56.2954 8.58542C54.8566 8.58542 53.5922 8.92386 52.5021 9.60076C51.4121 10.2777 50.5619 11.2166 49.9515 12.4175C49.3629 13.5966 49.0686 14.9832 49.0686 16.5771C49.0686 18.1711 49.3629 19.5686 49.9515 20.7695C50.5619 21.9705 51.4121 22.9094 52.5021 23.5863C53.5922 24.2632 54.8566 24.6016 56.2954 24.6016C57.7778 24.6016 59.0313 24.2195 60.056 23.4553C61.1024 22.6692 61.8327 21.6866 62.2469 20.5075L66.7269 22.6692C66.3127 23.8701 65.6151 24.9619 64.634 25.9445C63.653 26.9271 62.454 27.7132 61.037 28.3027C59.6418 28.8923 58.0612 29.187 56.2954 29.187Z" fill="#253352"/>
<path d="M18.2856 30.8572V19.4286C18.2856 18.8001 18.7999 18.2858 19.4285 18.2858H23.9999C24.6285 18.2858 25.1428 18.8001 25.1428 19.4286C25.1428 20.0572 25.6571 20.5715 26.2856 20.5715H28.5714C29.1999 20.5715 29.7142 20.0572 29.7142 19.4286C29.7142 18.8001 30.2285 18.2858 30.8571 18.2858C31.4856 18.2858 31.9999 18.8001 31.9999 19.4286V26.2858C31.9999 26.9143 31.4856 27.4286 30.8571 27.4286H26.2856C25.6571 27.4286 25.1428 26.9143 25.1428 26.2858C25.1428 25.6572 24.6285 25.1429 23.9999 25.1429C23.3714 25.1429 22.8571 25.6572 22.8571 26.2858V30.8572C22.8571 31.4858 22.3428 32 21.7142 32H19.4285C18.7999 32 18.2856 31.4858 18.2856 30.8572ZM27.4285 30.8572C27.4285 31.1603 27.3081 31.451 27.0938 31.6653C26.8794 31.8796 26.5887 32 26.2856 32C25.9825 32 25.6918 31.8796 25.4775 31.6653C25.2632 31.451 25.1428 31.1603 25.1428 30.8572C25.1428 30.5541 25.2632 30.2634 25.4775 30.0491C25.6918 29.8347 25.9825 29.7143 26.2856 29.7143C26.5887 29.7143 26.8794 29.8347 27.0938 30.0491C27.3081 30.2634 27.4285 30.5541 27.4285 30.8572ZM31.9999 30.8572C31.9999 31.1603 31.8795 31.451 31.6652 31.6653C31.4509 31.8796 31.1602 32 30.8571 32C30.554 32 30.2633 31.8796 30.0489 31.6653C29.8346 31.451 29.7142 31.1603 29.7142 30.8572C29.7142 30.5541 29.8346 30.2634 30.0489 30.0491C30.2633 29.8347 30.554 29.7143 30.8571 29.7143C31.1602 29.7143 31.4509 29.8347 31.6652 30.0491C31.8795 30.2634 31.9999 30.5541 31.9999 30.8572Z" fill="#DF6D14"/>
<path d="M10.2857 0C12.1793 0 13.7143 1.53502 13.7143 3.42857V10.2857C13.7143 12.1793 12.1793 13.7143 10.2857 13.7143H3.42857C1.53502 13.7143 0 12.1793 0 10.2857V3.42857C0 1.53502 1.53502 0 3.42857 0H10.2857ZM4.57143 4.57143V9.14286H9.14286V4.57143H4.57143Z" fill="#3768EC"/>
<path d="M10.2857 18.2858C12.1793 18.2858 13.7143 19.8208 13.7143 21.7143V28.5715C13.7143 30.465 12.1793 32 10.2857 32H3.42857C1.53502 32 0 30.465 0 28.5715V21.7143C0 19.8208 1.53502 18.2858 3.42857 18.2858H10.2857ZM4.57143 22.8572V27.4286H9.14286V22.8572H4.57143Z" fill="#3768EC"/>
<path d="M28.5714 0C30.4649 0 31.9999 1.53502 31.9999 3.42857V10.2857C31.9999 12.1793 30.4649 13.7143 28.5714 13.7143H21.7142C19.8207 13.7143 18.2856 12.1793 18.2856 10.2857V3.42857C18.2856 1.53502 19.8207 0 21.7142 0H28.5714ZM22.8571 4.57143V9.14286H27.4285V4.57143H22.8571Z" fill="#3768EC"/>
</svg>
