<svg width="145" height="26" viewBox="0 0 145 26" fill="none" xmlns="http://www.w3.org/2000/svg">
<path d="M138.049 26C137.017 26 136.059 25.828 135.175 25.4841C134.291 25.1402 133.529 24.6571 132.89 24.0348C132.268 23.4289 131.818 22.7083 131.539 21.8731L134.954 20.6694C135.134 21.2917 135.503 21.783 136.059 22.1433C136.616 22.5036 137.279 22.6837 138.049 22.6837C138.655 22.6837 139.179 22.5691 139.621 22.3398C140.063 22.1269 140.399 21.8076 140.628 21.3818C140.874 20.956 140.997 20.4565 140.997 19.8833V16.8127L141.709 17.697C141.251 18.4504 140.661 19.0154 139.941 19.392C139.22 19.7523 138.377 19.9324 137.41 19.9324C136.166 19.9324 135.052 19.654 134.07 19.0972C133.087 18.5241 132.317 17.7462 131.761 16.7636C131.204 15.7646 130.925 14.6346 130.925 13.3736C130.925 12.1126 131.204 10.999 131.761 10.0328C132.317 9.05016 133.079 8.28045 134.045 7.72365C135.011 7.16684 136.109 6.88844 137.337 6.88844C138.303 6.88844 139.146 7.08495 139.867 7.47799C140.588 7.85466 141.202 8.43603 141.709 9.22211L141.243 10.1064V7.18322H144.682V19.8833C144.682 21.0624 144.395 22.1105 143.822 23.0276C143.249 23.9611 142.463 24.6899 141.464 25.2139C140.481 25.738 139.343 26 138.049 26ZM137.926 16.5916C138.549 16.5916 139.089 16.4606 139.548 16.1986C140.006 15.9365 140.358 15.5681 140.604 15.0931C140.866 14.6182 140.997 14.0614 140.997 13.4227C140.997 12.784 140.866 12.2272 140.604 11.7523C140.342 11.261 139.982 10.8843 139.523 10.6223C139.064 10.3439 138.532 10.2047 137.926 10.2047C137.304 10.2047 136.747 10.3439 136.256 10.6223C135.781 10.8843 135.404 11.261 135.126 11.7523C134.864 12.2272 134.733 12.784 134.733 13.4227C134.733 14.045 134.864 14.5937 135.126 15.0686C135.404 15.5435 135.781 15.9202 136.256 16.1986C136.747 16.4606 137.304 16.5916 137.926 16.5916Z" fill="#253352"/>
<path d="M116.76 20.5957V7.18322H120.199V9.83623L120.003 9.24667C120.314 8.44422 120.813 7.85466 121.501 7.47799C122.205 7.08495 123.024 6.88844 123.958 6.88844C124.973 6.88844 125.857 7.10133 126.611 7.52713C127.381 7.95292 127.978 8.55067 128.404 9.32037C128.83 10.0737 129.043 10.958 129.043 11.9734V20.5957H125.358V12.7595C125.358 12.2354 125.252 11.7851 125.039 11.4084C124.842 11.0317 124.556 10.737 124.179 10.5241C123.819 10.3112 123.393 10.2047 122.902 10.2047C122.427 10.2047 122.001 10.3112 121.624 10.5241C121.247 10.737 120.953 11.0317 120.74 11.4084C120.543 11.7851 120.445 12.2354 120.445 12.7595V20.5957H116.76Z" fill="#253352"/>
<path d="M110.379 20.5957V7.18321H114.064V20.5957H110.379ZM110.379 5.97953V2.29478H114.064V5.97953H110.379Z" fill="#253352"/>
<path d="M95.9856 20.5957V2H99.6703V13.914L98.2947 13.4719L104.215 7.18322H108.759L103.896 12.5875L108.735 20.5957H104.559L100.506 13.7912L102.643 13.2508L98.5404 17.7216L99.6703 15.5844V20.5957H95.9856Z" fill="#253352"/>
<path d="M87.5518 20.8905C86.2089 20.8905 84.9971 20.5875 83.9162 19.9816C82.8517 19.3593 82.0001 18.5159 81.3614 17.4514C80.7391 16.3869 80.428 15.1914 80.428 13.8649C80.428 12.5384 80.7391 11.3511 81.3614 10.303C81.9838 9.23849 82.8353 8.40328 83.9162 7.79734C84.9971 7.1914 86.2089 6.88844 87.5518 6.88844C88.5508 6.88844 89.4761 7.06039 90.3277 7.4043C91.1793 7.74821 91.908 8.23132 92.514 8.85364C93.1199 9.45957 93.5539 10.1801 93.8159 11.0154L90.6225 12.391C90.3932 11.7196 90.0001 11.1873 89.4433 10.7943C88.9029 10.4012 88.2724 10.2047 87.5518 10.2047C86.9131 10.2047 86.34 10.3603 85.8323 10.6714C85.341 10.9826 84.9479 11.4166 84.6532 11.9734C84.3748 12.5302 84.2356 13.1689 84.2356 13.8895C84.2356 14.61 84.3748 15.2487 84.6532 15.8055C84.9479 16.3623 85.341 16.7963 85.8323 17.1075C86.34 17.4186 86.9131 17.5742 87.5518 17.5742C88.2888 17.5742 88.9275 17.3777 89.4679 16.9846C90.0083 16.5916 90.3932 16.0594 90.6225 15.3879L93.8159 16.7881C93.5703 17.5742 93.1445 18.2784 92.5385 18.9007C91.9326 19.523 91.2038 20.0143 90.3522 20.3746C89.5006 20.7185 88.5672 20.8905 87.5518 20.8905Z" fill="#253352"/>
<path d="M72.4117 20.8905C70.9869 20.8905 69.7505 20.5793 68.7024 19.957C67.6542 19.3183 66.8436 18.4667 66.2704 17.4023C65.6972 16.3378 65.4106 15.1587 65.4106 13.8649C65.4106 12.522 65.7054 11.3265 66.295 10.2784C66.9009 9.2303 67.7116 8.40328 68.7269 7.79734C69.7423 7.1914 70.8886 6.88844 72.166 6.88844C73.2305 6.88844 74.1722 7.06039 74.991 7.4043C75.8098 7.73183 76.4976 8.19857 77.0545 8.8045C77.6276 9.41044 78.0616 10.1146 78.3564 10.9171C78.6512 11.7032 78.7986 12.5629 78.7986 13.4964C78.7986 13.7584 78.7822 14.0205 78.7494 14.2825C78.7331 14.5281 78.6921 14.741 78.6266 14.9212H68.5795V12.219H76.5386L74.7945 13.4964C74.9582 12.7922 74.9501 12.1699 74.7699 11.6295C74.5898 11.0727 74.2704 10.6387 73.8119 10.3275C73.3697 10 72.8211 9.83623 72.166 9.83623C71.5273 9.83623 70.9787 9.99181 70.5202 10.303C70.0616 10.6141 69.7177 11.0727 69.4884 11.6786C69.2592 12.2845 69.1691 13.0215 69.2182 13.8895C69.1527 14.6428 69.2428 15.306 69.4884 15.8792C69.7341 16.4524 70.1107 16.9028 70.6184 17.2303C71.1261 17.5415 71.7402 17.697 72.4608 17.697C73.1159 17.697 73.6727 17.566 74.1312 17.304C74.6061 17.042 74.9746 16.6817 75.2366 16.2231L78.1844 17.6233C77.9224 18.2784 77.5048 18.8516 76.9316 19.3429C76.3748 19.8342 75.7116 20.219 74.9419 20.4974C74.1722 20.7595 73.3288 20.8905 72.4117 20.8905Z" fill="#253352"/>
<path d="M51.2456 20.5957V2H54.9304V9.83623L54.4882 9.24667C54.7993 8.44422 55.2988 7.85466 55.9866 7.47799C56.6908 7.08495 57.5097 6.88843 58.4432 6.88843C59.4585 6.88843 60.3428 7.10133 61.0962 7.52713C61.8659 7.95292 62.4636 8.55067 62.8894 9.32037C63.3152 10.0737 63.5281 10.958 63.5281 11.9734V20.5957H59.8434V12.7595C59.8434 12.2354 59.7369 11.7851 59.524 11.4084C59.3275 11.0317 59.0409 10.737 58.6642 10.5241C58.3039 10.3112 57.8782 10.2047 57.3869 10.2047C56.9119 10.2047 56.4861 10.3112 56.1095 10.5241C55.7328 10.737 55.438 11.0317 55.2251 11.4084C55.0286 11.7851 54.9304 12.2354 54.9304 12.7595V20.5957H51.2456Z" fill="#253352"/>
<path d="M41.2364 20.8905C39.9263 20.8905 38.7062 20.653 37.5763 20.1781C36.4626 19.7032 35.4882 19.0399 34.653 18.1883C33.8178 17.3367 33.1627 16.3378 32.6878 15.1914C32.2293 14.045 32 12.7922 32 11.433C32 10.0737 32.2293 8.82088 32.6878 7.67451C33.1464 6.51177 33.7932 5.5128 34.6285 4.67759C35.4637 3.826 36.4381 3.17093 37.5517 2.71238C38.6817 2.23746 39.9099 2 41.2364 2C42.5629 2 43.7503 2.22109 44.7984 2.66326C45.8628 3.10543 46.7636 3.69498 47.5005 4.43193C48.2375 5.16888 48.7615 5.98772 49.0727 6.88843L45.7073 8.50972C45.3961 7.62538 44.8475 6.89662 44.0614 6.32344C43.2917 5.73388 42.3501 5.4391 41.2364 5.4391C40.1556 5.4391 39.2057 5.69294 38.3869 6.20061C37.5681 6.70829 36.9294 7.41249 36.4708 8.3132C36.0287 9.19754 35.8076 10.2375 35.8076 11.433C35.8076 12.6285 36.0287 13.6766 36.4708 14.5773C36.9294 15.478 37.5681 16.1822 38.3869 16.6899C39.2057 17.1975 40.1556 17.4514 41.2364 17.4514C42.3501 17.4514 43.2917 17.1648 44.0614 16.5916C44.8475 16.002 45.3961 15.2651 45.7073 14.3808L49.0727 16.002C48.7615 16.9028 48.2375 17.7216 47.5005 18.4585C46.7636 19.1955 45.8628 19.7851 44.7984 20.2272C43.7503 20.6694 42.5629 20.8905 41.2364 20.8905Z" fill="#253352"/>
<path d="M13.7144 23.1428V14.5714C13.7144 14.1 14.1001 13.7143 14.5715 13.7143H18.0001C18.4715 13.7143 18.8572 14.1 18.8572 14.5714C18.8572 15.0428 19.2429 15.4286 19.7144 15.4286H21.4286C21.9001 15.4286 22.2858 15.0428 22.2858 14.5714C22.2858 14.1 22.6715 13.7143 23.1429 13.7143C23.6144 13.7143 24.0001 14.1 24.0001 14.5714V19.7143C24.0001 20.1857 23.6144 20.5714 23.1429 20.5714H19.7144C19.2429 20.5714 18.8572 20.1857 18.8572 19.7143C18.8572 19.2428 18.4715 18.8571 18.0001 18.8571C17.5286 18.8571 17.1429 19.2428 17.1429 19.7143V23.1428C17.1429 23.6143 16.7572 24 16.2858 24H14.5715C14.1001 24 13.7144 23.6143 13.7144 23.1428ZM20.5715 23.1428C20.5715 23.3702 20.4812 23.5882 20.3204 23.7489C20.1597 23.9097 19.9417 24 19.7144 24C19.487 24 19.269 23.9097 19.1083 23.7489C18.9475 23.5882 18.8572 23.3702 18.8572 23.1428C18.8572 22.9155 18.9475 22.6975 19.1083 22.5367C19.269 22.376 19.487 22.2857 19.7144 22.2857C19.9417 22.2857 20.1597 22.376 20.3204 22.5367C20.4812 22.6975 20.5715 22.9155 20.5715 23.1428ZM24.0001 23.1428C24.0001 23.3702 23.9098 23.5882 23.749 23.7489C23.5883 23.9097 23.3703 24 23.1429 24C22.9156 24 22.6976 23.9097 22.5368 23.7489C22.3761 23.5882 22.2858 23.3702 22.2858 23.1428C22.2858 22.9155 22.3761 22.6975 22.5368 22.5367C22.6976 22.376 22.9156 22.2857 23.1429 22.2857C23.3703 22.2857 23.5883 22.376 23.749 22.5367C23.9098 22.6975 24.0001 22.9155 24.0001 23.1428Z" fill="#DF6D14"/>
<path d="M7.71428 0C9.13445 0 10.2857 1.15127 10.2857 2.57143V7.71428C10.2857 9.13445 9.13445 10.2857 7.71428 10.2857H2.57143C1.15127 10.2857 0 9.13445 0 7.71428V2.57143C0 1.15127 1.15127 0 2.57143 0H7.71428ZM3.42857 3.42857V6.85714H6.85714V3.42857H3.42857Z" fill="#3768EC"/>
<path d="M7.71428 13.7143C9.13445 13.7143 10.2857 14.8655 10.2857 16.2857V21.4286C10.2857 22.8487 9.13445 24 7.71428 24H2.57143C1.15127 24 0 22.8487 0 21.4286V16.2857C0 14.8655 1.15127 13.7143 2.57143 13.7143H7.71428ZM3.42857 17.1428V20.5714H6.85714V17.1428H3.42857Z" fill="#3768EC"/>
<path d="M21.4286 0C22.8488 0 24.0001 1.15127 24.0001 2.57143V7.71428C24.0001 9.13445 22.8488 10.2857 21.4286 10.2857H16.2858C14.8656 10.2857 13.7144 9.13445 13.7144 7.71428V2.57143C13.7144 1.15127 14.8656 0 16.2858 0H21.4286ZM17.1429 3.42857V6.85714H20.5715V3.42857H17.1429Z" fill="#3768EC"/>
</svg>
